<?xml version="1.0" encoding="utf-8"?>
<!DOCTYPE svg PUBLIC "-//W3C//DTD SVG 20010904//EN" "http://www.w3.org/TR/2001/REC-SVG-20010904/DTD/svg10.dtd">
<svg version="1.0" xmlns="http://www.w3.org/2000/svg" width="1026pt" height="1538pt" viewBox="0 0 1026 1538" style="" preserveAspectRatio="xMidYMid meet">
<g fill="#FFFFFFFE" stroke="#FFFFFFFE">
<path d="M 349.000 519.889 L 349.000 530.777 352.750 531.456 C 358.495 532.496 363.605 536.277 364.359 540.046 C 365.549 545.994 365.099 734.721 363.884 739.547 C 362.632 744.520 358.709 747.686 352.562 748.684 C 348.245 749.384 347.712 751.351 348.179 764.862 L 348.500 774.155 392.500 774.119 L 436.500 774.083 438.684 768.291 C 439.885 765.106 442.737 757.100 445.020 750.500 C 453.347 726.438 463.984 696.899 465.019 694.965 C 466.059 693.022 467.116 692.987 517.725 693.241 L 569.371 693.500 575.743 711.500 C 579.247 721.400 583.395 732.731 584.960 736.680 C 588.012 744.380 587.831 745.000 582.529 745.000 C 578.669 745.000 576.413 741.934 572.965 732.000 C 571.151 726.775 569.288 721.449 568.826 720.164 C 568.061 718.041 567.076 719.068 557.966 731.497 L 547.947 745.165 548.224 759.581 L 548.500 773.996 639.750 774.248 L 731.000 774.500 731.000 759.759 L 731.000 745.018 678.257 744.759 L 625.514 744.500 618.835 725.500 C 615.161 715.050 609.186 697.950 605.557 687.500 C 601.927 677.050 596.725 662.200 593.996 654.500 C 586.584 633.585 558.816 553.456 550.765 529.750 L 543.718 509.000 518.040 509.000 L 492.362 509.000 488.770 519.250 C 486.795 524.888 483.162 535.125 480.697 542.000 C 468.778 575.242 459.264 602.180 453.500 619.000 C 450.014 629.175 444.152 645.825 440.475 656.000 C 436.798 666.175 430.951 683.050 427.481 693.500 C 416.913 725.336 410.952 742.352 409.946 743.565 C 408.491 745.318 404.198 744.068 401.977 741.244 C 400.037 738.778 400.000 736.836 400.000 638.502 L 400.000 538.273 402.637 535.635 C 404.088 534.185 407.125 532.497 409.387 531.885 C 411.649 531.273 414.063 530.612 414.750 530.417 C 415.648 530.162 416.000 527.101 416.000 519.531 L 416.000 509.000 382.500 509.000 L 349.000 509.000 349.000 519.889 M 526.877 572.000 C 537.762 602.520 557.956 659.787 558.705 662.261 C 559.210 663.926 556.973 664.008 517.870 663.761 C 481.797 663.533 476.520 663.308 476.657 662.000 C 476.744 661.175 479.370 653.300 482.494 644.500 C 485.618 635.700 491.695 618.375 495.999 606.000 C 502.659 586.849 512.626 558.600 516.216 548.699 C 516.774 547.158 517.355 546.033 517.507 546.199 C 517.658 546.365 521.875 557.975 526.877 572.000 "/></g>
<g fill="#FFFFFFFE" stroke="#FFFFFFFE">
<path d="M 574.443 510.288 C 574.169 511.003 574.069 518.318 574.222 526.544 L 574.500 541.500 633.250 541.758 C 687.238 541.995 694.507 542.332 691.094 544.442 C 690.248 544.965 657.071 591.221 629.010 631.000 C 622.220 640.625 614.532 651.415 611.924 654.977 C 607.540 660.967 607.280 661.643 608.474 663.977 C 609.183 665.365 612.061 672.930 614.868 680.790 C 617.675 688.649 620.468 696.005 621.073 697.136 C 622.409 699.634 619.392 703.348 645.150 667.500 C 656.215 652.100 668.696 634.821 672.884 629.103 C 677.073 623.384 683.425 614.526 687.000 609.418 C 693.602 599.985 709.010 578.362 723.210 558.602 L 731.042 547.704 730.771 528.602 L 730.500 509.500 652.721 509.244 C 589.640 509.036 574.848 509.233 574.443 510.288 "/></g>
<g fill="#FFFFFFFE" stroke="#FFFFFFFE">
<path d="M 501.000 993.472 L 501.000 1035.184 520.250 1034.756 C 534.589 1034.437 540.816 1033.900 544.657 1032.653 C 555.745 1029.052 564.412 1020.272 567.556 1009.455 C 570.004 1001.036 569.718 983.903 567.011 976.718 C 564.197 969.249 559.644 963.315 553.618 959.259 C 545.567 953.842 540.573 952.809 519.750 952.257 L 501.000 951.759 501.000 993.472 M 536.386 967.416 C 547.405 970.732 553.998 980.575 553.999 993.712 C 554.001 1012.454 543.986 1022.000 524.322 1022.000 L 516.000 1022.000 516.000 994.000 L 516.000 966.000 523.841 966.000 C 528.154 966.000 533.799 966.637 536.386 967.416 "/></g>
<g fill="#FFFFFFFE" stroke="#FFFFFFFE">
<path d="M 322.667 952.667 C 322.300 953.033 322.000 971.708 322.000 994.167 L 322.000 1035.000 329.485 1035.000 L 336.969 1035.000 337.235 1006.250 L 337.500 977.500 340.857 986.000 C 342.703 990.675 347.698 1002.825 351.957 1013.000 C 356.217 1023.175 359.988 1032.309 360.338 1033.298 C 360.873 1034.810 361.942 1035.049 367.055 1034.798 L 373.136 1034.500 381.157 1015.000 C 385.568 1004.275 390.392 992.257 391.877 988.294 C 393.363 984.331 394.898 980.769 395.289 980.378 C 395.680 979.987 396.000 992.117 396.000 1007.333 L 396.000 1035.000 403.607 1035.000 C 410.133 1035.000 411.128 1034.775 410.607 1033.418 C 410.273 1032.548 410.000 1013.856 410.000 991.881 L 410.000 951.925 400.892 952.212 L 391.785 952.500 387.300 963.500 C 384.834 969.550 379.454 982.801 375.345 992.948 C 371.236 1003.094 367.622 1011.803 367.314 1012.302 C 367.005 1012.800 363.276 1004.724 359.025 994.354 C 354.775 983.984 349.117 970.213 346.452 963.750 L 341.608 952.000 332.470 952.000 C 327.445 952.000 323.033 952.300 322.667 952.667 "/></g>
<g fill="#FFFFFFFE" stroke="#FFFFFFFE">
<path d="M 610.000 873.129 L 610.000 915.088 617.186 914.794 L 624.372 914.500 624.278 885.250 C 624.226 869.163 624.502 856.000 624.891 856.000 C 625.280 856.000 626.204 857.688 626.944 859.750 C 627.685 861.813 631.174 870.475 634.699 879.000 C 638.224 887.525 642.996 899.102 645.304 904.727 L 649.500 914.955 654.801 914.977 C 659.985 914.999 660.137 914.917 661.693 911.250 C 667.398 897.802 680.434 865.744 681.720 862.000 C 682.570 859.525 683.656 857.073 684.133 856.550 C 684.624 856.012 685.000 868.471 685.000 885.300 L 685.000 915.000 692.000 915.000 L 699.000 915.000 699.000 873.207 L 699.000 831.415 689.439 831.457 L 679.878 831.500 672.884 848.500 C 669.038 857.850 663.588 871.238 660.773 878.250 C 657.958 885.263 655.375 891.000 655.033 891.000 C 654.691 891.000 649.545 879.188 643.598 864.750 C 637.650 850.313 632.045 836.929 631.142 835.008 L 629.500 831.516 619.750 831.343 L 610.000 831.171 610.000 873.129 "/></g>
<g fill="#FFFFFFFE" stroke="#FFFFFFFE">
<path d="M 171.988 961.214 C 170.183 966.321 163.843 983.837 157.900 1000.137 C 151.957 1016.438 146.795 1030.970 146.428 1032.432 L 145.761 1035.088 153.630 1034.794 L 161.500 1034.500 164.860 1024.750 L 168.219 1015.000 183.993 1015.000 L 199.767 1015.000 203.260 1024.750 L 206.753 1034.500 214.876 1034.790 C 219.344 1034.950 223.000 1034.879 223.000 1034.633 C 223.000 1034.085 204.730 983.478 198.043 965.500 L 193.207 952.500 184.239 952.214 L 175.271 951.929 171.988 961.214 M 184.281 1002.000 C 178.077 1002.000 173.000 1001.835 173.000 1001.634 C 173.000 1001.237 182.647 971.419 183.539 969.060 C 183.838 968.267 186.666 975.355 189.823 984.810 L 195.563 1002.000 184.281 1002.000 "/></g>
<g fill="#FFFFFFFE" stroke="#FFFFFFFE">
<path d="M 545.168 836.250 C 544.082 839.138 541.991 844.650 540.523 848.500 C 539.054 852.350 533.199 868.100 527.512 883.500 C 521.825 898.900 516.853 912.307 516.463 913.292 C 515.810 914.942 516.419 915.062 524.127 914.792 L 532.500 914.500 535.991 904.250 L 539.481 894.000 555.241 894.000 C 563.908 894.000 571.003 894.113 571.006 894.250 C 571.009 894.388 572.522 899.000 574.367 904.500 L 577.721 914.500 585.890 914.791 L 594.059 915.082 593.386 912.291 C 593.016 910.756 591.834 907.250 590.759 904.500 C 589.683 901.750 586.878 894.100 584.524 887.500 C 576.088 863.844 564.649 833.477 563.711 832.250 C 563.090 831.438 560.018 831.000 554.949 831.000 L 547.144 831.000 545.168 836.250 M 561.091 865.506 L 566.683 882.000 555.341 882.000 C 549.104 882.000 544.000 881.663 544.000 881.250 C 544.000 879.801 554.506 849.011 555.000 849.012 C 555.275 849.012 558.016 856.435 561.091 865.506 "/></g>
<g fill="#FFFFFFFE" stroke="#FFFFFFFE">
<path d="M 712.178 957.750 C 711.075 960.913 706.270 974.075 701.501 987.000 C 696.732 999.925 691.768 1013.457 690.471 1017.071 C 689.174 1020.685 687.187 1025.989 686.056 1028.858 C 684.925 1031.727 684.000 1034.301 684.000 1034.577 C 684.000 1034.854 687.679 1034.950 692.175 1034.790 L 700.350 1034.500 703.553 1025.000 L 706.757 1015.500 722.736 1015.226 L 738.716 1014.952 742.151 1024.726 L 745.586 1034.500 753.793 1034.790 C 758.307 1034.950 762.000 1034.906 762.000 1034.693 C 762.000 1034.480 758.235 1024.224 753.633 1011.903 C 749.032 999.581 742.443 981.625 738.993 972.000 C 735.542 962.375 732.277 953.938 731.737 953.250 C 731.093 952.430 727.908 952.000 722.469 952.000 L 714.184 952.000 712.178 957.750 M 727.498 982.000 C 729.611 988.325 732.148 995.413 733.135 997.750 L 734.929 1002.000 723.464 1002.000 C 717.159 1002.000 711.993 1001.663 711.984 1001.250 C 711.975 1000.838 714.071 993.975 716.642 986.000 C 719.213 978.025 721.485 970.862 721.691 970.083 C 722.333 967.654 723.515 970.079 727.498 982.000 "/></g>
<g fill="#FFFFFFFE" stroke="#FFFFFFFE">
<path d="M 236.667 952.667 C 236.300 953.033 236.000 971.708 236.000 994.167 L 236.000 1035.000 243.476 1035.000 L 250.953 1035.000 251.226 1017.750 L 251.500 1000.500 269.750 1000.227 L 288.000 999.955 288.000 1017.477 L 288.000 1035.000 295.511 1035.000 L 303.022 1035.000 302.761 993.750 L 302.500 952.500 295.274 952.207 L 288.048 951.913 287.774 969.207 L 287.500 986.500 269.500 986.500 L 251.500 986.500 251.226 969.250 L 250.953 952.000 244.143 952.000 C 240.398 952.000 237.033 952.300 236.667 952.667 "/></g>
<g fill="#FFFFFFFE" stroke="#FFFFFFFE">
<path d="M 392.367 830.427 C 386.652 832.215 381.394 836.472 378.228 841.874 C 376.003 845.670 375.561 847.612 375.588 853.467 C 375.653 867.271 380.834 872.506 400.789 878.932 C 416.391 883.956 419.515 886.142 419.363 891.924 C 419.137 900.536 410.418 904.910 399.512 901.882 C 395.054 900.644 389.310 895.202 388.820 891.753 C 388.523 889.659 388.085 889.525 382.615 889.858 C 373.125 890.436 373.461 890.254 373.833 894.605 C 374.605 903.636 382.585 911.910 393.132 914.614 C 400.878 916.600 414.545 916.082 420.500 913.577 C 429.715 909.700 434.376 902.148 434.434 890.998 C 434.504 877.769 429.842 873.016 410.299 866.391 C 394.787 861.132 391.000 858.523 391.000 853.092 C 391.000 845.727 398.223 841.017 407.193 842.533 C 411.997 843.344 417.487 847.912 418.931 852.300 L 419.985 855.500 427.093 855.164 L 434.201 854.828 433.522 850.164 C 432.153 840.759 426.113 833.800 416.572 830.635 C 410.688 828.683 398.282 828.576 392.367 830.427 "/></g>
<g fill="#FFFFFFFE" stroke="#FFFFFFFE">
<path d="M 775.000 993.500 L 775.000 1035.000 781.924 1035.000 L 788.849 1035.000 789.174 1021.014 L 789.500 1007.028 793.106 1003.425 L 796.712 999.822 807.006 1014.161 C 812.668 1022.047 818.381 1029.963 819.701 1031.750 C 822.099 1034.996 822.114 1035.000 831.051 1035.000 C 835.973 1035.000 840.000 1034.797 840.000 1034.550 C 840.000 1034.055 830.596 1021.041 816.199 1001.613 L 806.898 989.062 821.949 970.995 C 830.227 961.059 837.000 952.720 837.000 952.464 C 837.000 952.209 832.834 952.000 827.741 952.000 L 818.483 952.000 806.237 967.250 C 799.502 975.638 792.852 983.850 791.460 985.500 L 788.928 988.500 789.214 970.249 L 789.500 951.997 782.250 951.999 L 775.000 952.000 775.000 993.500 "/></g>
<g fill="#FFFFFFFE" stroke="#FFFFFFFE">
<path d="M 430.000 993.483 L 430.000 1035.000 456.500 1035.000 L 483.000 1035.000 483.000 1028.500 L 483.000 1022.000 464.000 1022.000 L 445.000 1022.000 445.000 1011.500 L 445.000 1001.000 461.546 1001.000 L 478.091 1001.000 477.796 994.443 L 477.500 987.887 461.250 987.834 L 445.000 987.782 445.000 976.891 L 445.000 966.000 462.546 966.000 L 480.091 966.000 479.796 959.250 L 479.500 952.500 454.750 952.233 L 430.000 951.965 430.000 993.483 "/></g>
<g fill="#FFFFFFFE" stroke="#FFFFFFFE">
<path d="M 613.000 959.000 L 613.000 966.000 633.007 966.000 L 653.014 966.000 649.308 971.250 C 647.270 974.138 638.267 986.981 629.301 999.792 L 613.000 1023.083 613.000 1029.042 L 613.000 1035.000 642.500 1035.000 L 672.000 1035.000 672.000 1028.500 L 672.000 1022.000 652.000 1022.000 C 641.000 1022.000 632.000 1021.788 632.000 1021.529 C 632.000 1021.269 637.535 1013.282 644.299 1003.779 C 672.059 964.780 672.000 964.878 672.000 958.064 L 672.000 952.000 642.500 952.000 L 613.000 952.000 613.000 959.000 "/></g>
<g fill="#FFFFFFFE" stroke="#FFFFFFFE">
<path d="M 452.000 873.182 L 452.000 915.000 477.941 915.000 C 492.209 915.000 504.072 914.663 504.303 914.250 C 504.535 913.838 504.508 910.688 504.242 907.250 L 503.760 901.000 485.380 901.000 L 467.000 901.000 467.000 866.066 L 467.000 831.131 459.500 831.248 L 452.000 831.364 452.000 873.182 "/></g>
<g fill="#FFFFFFFE" stroke="#FFFFFFFE">
<path d="M 339.000 873.162 L 339.000 915.088 346.167 914.794 L 353.334 914.500 353.259 873.014 L 353.184 831.528 346.092 831.382 L 339.000 831.235 339.000 873.162 "/></g>
<g fill="#FFFFFFFE" stroke="#FFFFFFFE">
<path d="M 852.000 993.500 L 852.000 1035.000 859.000 1035.000 L 866.000 1035.000 866.000 993.500 L 866.000 952.000 859.000 952.000 L 852.000 952.000 852.000 993.500 "/></g>
</svg>
