<?xml version="1.0" standalone="no"?>
<!DOCTYPE svg PUBLIC "-//W3C//DTD SVG 20010904//EN"
 "http://www.w3.org/TR/2001/REC-SVG-20010904/DTD/svg10.dtd">
<svg version="1.0" xmlns="http://www.w3.org/2000/svg"
 width="1024.000000pt" height="1536.000000pt" viewBox="0 0 1024.000000 1536.000000"
 preserveAspectRatio="xMidYMid meet">

<g transform="translate(0.000000,1536.000000) scale(0.100000,-0.100000)"
fill="#000000" stroke="none">
<path d="M4922 11688 c-10 -13 -75 -164 -175 -408 -30 -74 -87 -211 -125 -305
-98 -238 -401 -978 -479 -1170 -36 -88 -96 -234 -133 -325 -595 -1441 -581
-1410 -695 -1527 -56 -57 -65 -63 -103 -63 -78 0 -133 75 -170 234 -15 65 -17
199 -17 1491 0 1545 -1 1503 56 1618 80 157 217 237 410 237 66 0 70 1 80 27
6 16 7 47 2 77 l-8 51 -911 3 -911 2 -7 -31 c-8 -40 -8 -93 0 -113 5 -13 22
-16 84 -16 159 0 260 -37 345 -126 30 -31 66 -81 80 -111 56 -118 55 -85 55
-1611 0 -845 -4 -1430 -10 -1465 -13 -80 -50 -157 -104 -215 -82 -87 -188
-129 -348 -136 -47 -2 -91 -7 -97 -10 -13 -8 -15 -115 -3 -134 7 -10 267 -12
1268 -10 l1259 3 3 70 3 71 -98 12 c-122 16 -202 51 -279 124 -79 74 -106 124
-111 206 -6 85 21 181 119 422 38 96 89 221 111 278 l41 102 731 0 730 0 24
-62 c13 -35 58 -144 99 -243 87 -210 170 -454 179 -522 7 -61 -12 -107 -68
-168 -74 -80 -176 -121 -354 -143 l-60 -7 0 -70 0 -70 1593 -3 c1269 -2 1594
0 1597 10 3 7 18 126 35 263 17 138 44 362 61 498 17 137 28 255 25 263 -4 10
-25 14 -79 14 l-74 0 -23 -52 c-122 -275 -177 -362 -298 -480 -162 -157 -331
-242 -562 -284 -112 -20 -469 -29 -640 -16 -202 16 -294 55 -355 152 -13 21
-55 111 -93 201 -38 90 -123 292 -189 449 -113 267 -424 1013 -581 1395 -131
317 -224 549 -423 1050 -110 275 -208 519 -219 543 l-20 42 -79 0 c-51 0 -82
-4 -89 -12z m132 -1613 c145 -363 287 -715 314 -782 28 -68 50 -123 49 -124
-12 -3 -1258 -1 -1262 2 -2 3 22 73 55 155 78 195 431 1087 505 1277 32 81 62
144 67 139 4 -4 127 -305 272 -667z"/>
<path d="M5851 11612 c-27 -50 -106 -424 -156 -735 -32 -205 -32 -225 1 -237
30 -12 84 -13 101 -2 6 4 34 61 63 127 94 221 187 341 340 444 132 88 292 145
500 177 82 13 211 17 584 21 l480 5 -16 -23 c-18 -29 -210 -364 -373 -654 -65
-115 -209 -370 -320 -565 -111 -195 -309 -544 -440 -775 -131 -231 -249 -438
-262 -461 l-23 -41 66 -159 c36 -87 104 -255 152 -372 47 -117 91 -211 96
-209 25 8 718 1134 1213 1972 71 121 188 319 260 440 72 121 210 357 308 525
98 168 191 326 207 352 42 68 47 116 15 154 l-25 29 -1381 3 c-1338 2 -1380 2
-1390 -16z"/>
<path d="M3557 7063 c-73 -27 -151 -102 -176 -168 -44 -116 -17 -251 66 -332
42 -40 106 -76 273 -151 125 -56 174 -123 151 -208 -12 -45 -41 -77 -86 -94
-43 -16 -148 -14 -206 5 -61 21 -131 88 -155 150 -11 31 -22 45 -35 45 -18 0
-19 -10 -19 -139 l0 -138 103 -12 c56 -6 134 -14 174 -18 167 -14 319 53 379
169 22 41 31 191 15 240 -36 110 -105 167 -307 256 -134 58 -189 102 -200 158
-20 108 51 173 177 161 87 -8 121 -38 184 -162 72 -145 79 -139 83 70 l2 171
-67 1 c-38 0 -122 4 -188 7 -101 5 -128 4 -168 -11z"/>
<path d="M5645 7053 c-4 -10 -76 -204 -161 -431 -85 -228 -164 -434 -176 -458
-12 -27 -36 -55 -62 -72 -25 -17 -41 -36 -41 -47 0 -19 9 -20 154 -23 152 -2
170 1 171 31 0 4 -19 16 -43 26 -80 34 -82 52 -27 204 l32 87 182 -2 181 -3
34 -90 c19 -49 34 -108 35 -130 1 -38 -1 -41 -41 -60 -32 -14 -43 -25 -43 -42
l0 -23 200 0 200 0 0 24 c0 17 -10 31 -33 45 -44 27 -63 64 -156 302 -103 266
-172 439 -228 572 l-45 107 -63 0 c-51 0 -64 -3 -70 -17z m104 -404 c38 -101
67 -187 64 -191 -2 -5 -67 -8 -143 -8 -76 0 -141 3 -143 8 -5 8 143 385 149
379 2 -2 35 -87 73 -188z"/>
<path d="M2650 7036 c0 -19 11 -29 48 -47 73 -37 74 -41 70 -469 -3 -409 -1
-395 -76 -431 -33 -17 -42 -26 -40 -43 3 -21 6 -21 218 -21 213 0 215 0 218
22 3 17 -6 26 -43 42 -76 34 -76 33 -73 466 3 362 4 374 24 402 12 15 35 32
53 37 25 7 31 14 31 37 l0 29 -215 0 -215 0 0 -24z"/>
<path d="M4244 7045 c-10 -25 3 -43 35 -50 17 -3 41 -19 55 -35 33 -40 39
-120 34 -495 -3 -338 -3 -337 -78 -375 -30 -16 -40 -26 -40 -45 l0 -25 385 0
c358 0 386 1 393 18 4 9 7 78 7 152 0 113 -2 135 -15 135 -8 0 -26 -21 -41
-47 -57 -107 -139 -156 -284 -172 -75 -8 -97 -7 -110 4 -14 12 -15 56 -13 416
3 388 4 404 24 430 11 15 36 33 55 39 26 9 34 17 34 36 l0 24 -218 3 c-187 2
-218 0 -223 -13z"/>
<path d="M6464 7045 c-10 -25 3 -43 35 -50 17 -4 40 -18 51 -32 26 -34 26
-123 0 -439 -32 -385 -38 -409 -106 -441 -25 -13 -34 -23 -32 -38 3 -19 9 -20
158 -20 138 0 155 2 158 17 2 11 -10 24 -38 38 -22 11 -46 31 -52 44 -7 18 -6
86 6 253 9 125 19 279 22 341 4 62 10 109 15 105 4 -4 49 -123 100 -263 193
-533 203 -555 231 -558 30 -4 19 -27 223 473 81 198 149 362 151 364 9 10 12
-15 23 -204 6 -110 16 -261 22 -336 13 -159 6 -184 -60 -213 -43 -20 -60 -44
-39 -58 7 -4 102 -8 211 -8 l197 0 0 24 c0 18 -11 30 -42 48 -34 18 -46 32
-55 63 -15 51 -44 712 -33 760 10 46 35 73 74 83 24 6 31 14 31 33 l0 24 -171
3 -170 2 -148 -370 -148 -371 -98 258 c-53 142 -117 308 -141 368 l-44 110
-163 3 c-138 2 -163 0 -168 -13z"/>
<path d="M2639 5663 c-6 -16 -83 -219 -171 -453 -88 -234 -168 -439 -179 -456
-10 -17 -34 -39 -54 -50 -24 -13 -35 -26 -35 -41 0 -23 0 -23 155 -23 155 0
155 0 155 23 0 17 -11 28 -42 42 -64 31 -67 42 -35 138 16 45 35 97 43 115
l13 32 182 -2 181 -3 40 -118 40 -118 -22 -24 c-12 -13 -35 -27 -51 -30 -22
-5 -29 -12 -29 -31 l0 -24 205 0 205 0 0 23 c0 17 -10 28 -35 40 -37 18 -54
45 -103 172 -140 365 -297 765 -309 788 -13 25 -18 27 -79 27 -61 0 -65 -1
-75 -27z m104 -386 c37 -100 68 -185 67 -189 0 -5 -66 -8 -146 -8 -135 0 -146
1 -140 18 52 140 140 362 145 362 3 0 37 -82 74 -183z"/>
<path d="M3420 5665 c0 -19 8 -28 35 -39 19 -8 44 -30 55 -48 19 -32 20 -50
20 -411 0 -424 -1 -428 -68 -463 -23 -12 -38 -28 -40 -42 l-3 -22 210 0 211 0
0 25 c0 18 -8 28 -32 38 -70 30 -73 39 -76 238 l-4 179 219 -2 218 -3 0 -170
c0 -194 -5 -209 -75 -245 -26 -13 -40 -27 -40 -40 0 -19 7 -20 215 -20 l215 0
0 23 c0 17 -11 28 -42 42 -24 11 -49 31 -56 45 -9 19 -11 119 -10 421 3 381 4
398 23 419 11 13 35 29 53 37 26 11 33 19 30 36 -3 22 -4 22 -213 22 l-210 0
-3 -27 c-2 -20 1 -28 13 -28 29 0 71 -28 85 -57 14 -31 27 -293 16 -337 l-6
-26 -216 0 -216 0 4 179 c3 199 6 208 76 238 26 11 33 19 30 36 -3 22 -5 22
-210 25 l-208 2 0 -25z"/>
<path d="M4743 5672 c-3 -10 -8 -20 -10 -24 -2 -4 14 -15 37 -24 76 -31 82
-70 55 -409 -37 -475 -38 -480 -108 -516 -25 -13 -37 -26 -35 -37 3 -15 22
-17 161 -20 l157 -3 0 24 c0 17 -10 28 -35 40 -58 28 -60 43 -47 270 7 111 15
255 19 320 3 65 9 114 13 110 8 -9 57 -138 195 -513 48 -129 92 -241 97 -247
6 -7 18 -13 28 -13 20 0 9 -25 215 485 122 303 169 406 153 338 -3 -12 -2 -57
2 -100 5 -43 14 -186 20 -319 15 -287 12 -301 -56 -333 -32 -15 -44 -27 -42
-39 3 -15 23 -17 201 -20 l197 -2 0 24 c0 18 -8 27 -29 34 -58 20 -61 36 -76
339 -8 153 -17 330 -21 393 -8 139 2 168 66 194 33 13 41 21 38 39 -3 22 -6
22 -160 25 l-158 4 -15 -34 c-15 -35 -258 -649 -269 -682 -4 -12 -10 -16 -15
-10 -5 5 -39 90 -76 189 -103 279 -185 488 -201 513 -14 22 -19 23 -155 21
-121 -1 -141 -3 -146 -17z"/>
<path d="M6182 5681 c-23 -14 -9 -44 24 -53 16 -4 41 -19 55 -34 l24 -26 3
-384 c3 -362 2 -387 -17 -428 -15 -34 -27 -46 -54 -55 -36 -12 -55 -37 -39
-53 4 -4 181 -7 393 -6 l384 3 3 133 c2 112 0 132 -12 132 -9 0 -22 -13 -30
-28 -21 -41 -90 -100 -144 -124 -60 -27 -259 -39 -273 -17 -5 8 -9 96 -9 197
l0 182 78 0 c96 0 154 -25 194 -85 47 -70 53 -58 56 118 2 145 1 157 -15 157
-10 -1 -27 -15 -38 -33 -31 -49 -81 -69 -183 -71 l-87 -1 -3 198 -2 197 68 0
c82 0 171 -22 218 -54 19 -12 51 -47 72 -76 59 -85 62 -81 62 79 l0 141 -357
0 c-197 0 -364 -4 -371 -9z"/>
<path d="M7144 5676 c-10 -25 0 -39 36 -51 19 -6 43 -24 54 -39 20 -27 21 -40
21 -420 0 -439 2 -429 -73 -464 -25 -11 -38 -25 -40 -40 l-4 -24 284 4 c226 4
295 8 342 22 197 56 324 176 371 352 22 81 22 254 0 330 -49 167 -154 273
-321 320 -85 25 -661 33 -670 10z m577 -109 c31 -15 72 -42 91 -61 162 -157
170 -509 16 -672 -72 -76 -127 -97 -265 -102 l-113 -4 0 437 0 437 108 -3 c92
-4 115 -8 163 -32z"/>
<path d="M4695 4288 c-4 -13 -34 -93 -67 -178 -33 -85 -71 -184 -83 -220 -62
-176 -188 -497 -205 -525 -11 -17 -36 -40 -55 -51 -25 -13 -35 -25 -33 -39 3
-19 11 -20 158 -20 151 0 155 1 158 22 2 15 -4 23 -20 28 -45 15 -78 45 -78
74 0 23 38 147 65 214 6 15 25 17 194 17 l186 0 34 -93 c19 -50 35 -110 35
-131 1 -41 -5 -48 -80 -92 -11 -6 -15 -16 -11 -27 6 -15 28 -17 201 -17 120 0
197 4 201 10 11 17 -4 46 -30 58 -30 14 -57 66 -128 252 -134 348 -287 724
-299 732 -7 4 -41 8 -75 8 -55 0 -62 -2 -68 -22z m111 -388 c39 -104 69 -192
66 -195 -3 -3 -70 -5 -150 -5 -111 0 -143 3 -140 13 81 220 142 377 147 377 3
0 38 -86 77 -190z"/>
<path d="M3326 4284 c-3 -8 -6 -76 -6 -150 0 -125 1 -134 19 -134 12 0 21 9
25 26 10 40 82 110 139 134 40 18 77 24 160 28 59 2 107 2 107 -2 0 -13 -26
-58 -245 -426 -119 -201 -234 -388 -256 -417 -45 -60 -48 -78 -16 -87 32 -8
770 -7 783 2 17 10 23 334 7 339 -6 2 -34 -30 -62 -71 -55 -81 -86 -108 -171
-152 -50 -26 -66 -29 -182 -32 -71 -2 -128 -1 -128 2 0 3 19 36 43 73 48 74
304 508 412 697 39 70 68 132 69 150 l1 31 -346 3 c-310 2 -347 1 -353 -14z"/>
<path d="M5470 4275 c0 -20 8 -28 41 -42 68 -27 69 -31 69 -455 0 -422 -1
-427 -73 -461 -30 -14 -38 -23 -35 -40 3 -22 4 -22 203 -22 196 0 200 0 203
21 2 15 -7 27 -32 42 -65 38 -67 46 -64 273 l3 203 151 -184 c82 -102 158
-196 167 -210 28 -41 22 -68 -20 -87 -25 -12 -38 -25 -38 -38 0 -19 7 -20 195
-20 227 0 231 2 154 81 -26 27 -91 105 -144 174 -54 69 -141 179 -194 245
l-97 120 172 169 c129 126 186 175 226 193 37 17 53 30 53 44 0 18 -9 19 -155
19 -147 0 -155 -1 -155 -19 0 -11 5 -23 10 -26 6 -3 10 -17 10 -30 0 -25 -42
-76 -191 -230 -53 -55 -108 -113 -123 -130 l-25 -30 -1 167 c0 92 4 178 10
192 5 14 27 34 50 46 26 13 40 27 40 40 0 19 -7 20 -205 20 l-205 0 0 -25z"/>
<path d="M6630 4276 c0 -17 8 -27 29 -36 16 -6 40 -23 53 -37 l23 -25 3 -391
c2 -376 2 -393 -17 -424 -11 -18 -37 -39 -56 -48 -29 -11 -36 -19 -33 -37 3
-23 3 -23 211 -26 l207 -2 0 25 c0 19 -9 29 -41 45 -68 35 -69 40 -69 460 0
421 0 424 69 454 31 15 41 25 41 43 l0 23 -210 0 -210 0 0 -24z"/>
</g>
</svg>
